<svg xmlns="http://www.w3.org/2000/svg" viewBox="0 0 1448 724"><path d="M0 0h1038l-6 18c-3-4-9-6-14-5-6 2-11 8-11 14-1 7 5 14 9 19l-9-5c-2 2-3 4-3 7 1 4 5 6 8 9 1 3-3 4-4 5l-10-9-3 5 2 12c-5-3-7-8-11-12-2 2-4 3-3 6 0 9 4 17 9 24-4 3-7 7-7 12s2 10 5 14h-3l-1 7c0-5 0-10-3-14-5-5-12-6-18-3-6 4-9 13-6 20l6 8c-2 2-4 4-3 7 2 3 5 6 6 10-2-2-4-5-7-6-5-2-12 0-15 4-3 2-4 6-4 9-2 2-4 3-3 5l4 3 8 12c-3 1-6 3-10 3l-11 1c1 5 3 7 8 9 9 1 20-1 27-7 4-3 8-9 10-14-1 5-1 8 2 12l-10 9-2 18-3 6c-5-2-10-2-14 0-6 4-8 13-5 20l6 10-2 9c-1 4-4 9-7 12-2 2-5 5-5 8 1 4 4 4 7 4 4 0 8-2 11-4l5-14c1-5 3-8 2-13l3-4v2l7-6 1-12-2 4-1-9c6-4 13-7 19-12-1 4-2 7-1 11l8 13c-3 5-5 10-6 16a408 408 0 019 19c-4 5-9 8-12 13-5-5-13-6-19-3-5 4-8 13-5 19 2 5 6 9 9 14l-11 3 15 12 4-4c6 6 9 14 15 20l5-7-1-13 13 17c5-1 9-1 13-4 3-3 8-7 12-4l3 1c-8 4-11 14-6 22l-5 6c4 6 8 12 8 20l-2 9 4 4 5-3c1 4 0 8-1 12l7 3 2-2-3 7 1 8-2-2-3-1-2 8 1 3 7 5-1 5-10 8c-2-3-5-5-9-5-7 0-14 6-15 13 0 4 1 7 3 10-3 2-7 7-10 4-4-2-6-6-9-9-2 2-3 5-6 6h-9l3-7-3-1c3-4 8-9 9-15 2-8-2-17-11-19-9-1-16 6-16 14-1 6 4 11 7 17-5-2-10-5-15-3-7 3-11 12-8 20l8 13-11 6 5 12c6-3 12-8 17-12l10 12v14c-4-2-8-3-12-2-7 2-11 8-11 15 1 5 3 8 6 12l-7 7c-5-3-10-4-15-1-3 2-4 5-6 8v-2l-7 8-5-1c3-4 6-9 7-14 0-7-5-15-12-16-8-2-17 6-17 14 0 4 2 8 4 11l-2 6-2 19 7 4 5 9c5 2 10 2 14 2l8-8h13l3 20h9l7-5 7 2 4 13 3 6 10 9 12-3 5-5 7-7c-1 5-1 9 2 14-3 2-5 4-5 8-4-5-9-8-15-7s-9 6-11 11c-5-3-9-5-13-9l-7 1c-2-5-6-9-11-10-9-2-17 6-17 15 0 4 2 7 4 10l-9 1-4-7-1-1-8 8c1 5 2 10 5 14-2-1-5-2-7-1-3 0-5 2-8 4-1-5-2-9-5-13-5-4-12-4-17-1-6 4-8 12-6 18l9 15-8 4-3 8h-13l9-15c3-8-1-17-9-20-7-2-14 2-17 8-2 5-2 9 0 14l9 14-12 1v9c7 2 15 3 20 7 3 3 4 6 4 10H0V0z" fill="#a0dde0"/><path d="M1038 0h6v1h1l10 10 4 13 6-8 7-2v3c-1 4-1 7 1 11l12 19 5-6 9-15V16c7 0 14 1 20 3 2 0 5 1 5 3l-3 10c-3 4-5 8-9 11l-23 17-14 9-6 3 11-18c4-8-1-18-10-20-5-1-9 1-13 4V26c-3-5-8-9-14-9l-9 4-2-3 6-18z" fill="#d7f5f7"/><path d="M1044 0h404v724H871l9-9 4-9 5-2 9 4 5-11 20 8 29 15c3 1 5 3 7 0 8-11 13-24 19-35l33 9 24 7c6 2 12 4 18 4l1-11 16 1 20 1-3-13 7 4 19 13c1 2 4 4 6 3l32-2c2-1 4 1 6 3l14 8 10-3 25-11 4 4 6-7 6-4 16-2 5-27-10 2-1 4c0-4 1-8-1-11-2-5-7-8-12-8s-8 2-11 5l-1-6h11c2-5 6-10 7-15l-8-3h14c4-1 7-4 10-6l-5-8 10 2c12-11 22-24 28-39 2-7 1-13 1-19l-3 2 3-9c0-4-1-9-5-12l-9-4c2-4 5-8 4-13-1-6-5-12-11-13-6-2-13 2-15 8-2 2-2 5-2 8l-17-4c2-7 0-16-6-20-4-2-7-2-11-1l3-2c-2-4-3-9-6-13 4-5 8-10 10-16 3-7-1-17-9-19h-9l5-2-6-12c-3-3-5-6-3-10s7-5 9-9c1-3-1-4-3-7 2-3 4-7 3-12-2-7-7-12-14-12l-9 3c-2-7-7-14-14-18l-11-2c-3-1-6-2-10-1l4-1c-5-7-5-15-7-23l-1-22c3-4 6-8 5-13 0-4-2-7-4-10l2 1 3-18c-4-4-10-5-13-10-8-11-6-24-15-34 0-6-2-11-7-14h2l-2-11c3-4 6-9 7-14 1-3-1-7-2-10l2 1c10-9 20-20 28-31 3-5 7-10 8-16 1-4 1-8 3-11 2-4 8-5 11-8 1-3 2-9-1-11-5-5-12-8-19-9l-6-3h-7l-8-2c-1-6-5-11-11-13-6-1-12 2-15 7l-7-3c-6 3-11 8-17 9h-23c-1-5 3-10 8-11l8 2 4-2c4-2 7-5 8-9l-13-3 3-4-1-1 3-1 6-3 14-9 23-17c4-3 6-7 9-11l3-10c0-2-3-3-5-3-6-2-13-3-20-3v1c-2-7-9-12-16-10-6 1-9 5-11 10v-3l-7 2-6 8-4-13-10-10h-1V0z" fill="#a0dde0"/><path d="M1083 7c7-2 14 3 16 10v9l-9 15-5 6-12-19c-2-4-2-7-1-11 2-5 5-9 11-10z" fill="#49ccd2"/><path d="M1018 13c5-1 11 1 14 5l2 3 9-4c6 0 11 4 14 9v12c4-3 8-5 13-4 9 2 14 12 10 20l-11 18-3 1-11-16c-2-5-2-9-1-13l-7 9 8 5c4 5 5 13 1 18-3 7-7 12-11 18l-6-7c-2-5-6-9-7-13-2-5-1-9 1-13s5-5 8-7l-10-15c-4 4-6 11-10 14l-5-7c-4-5-10-12-9-19 0-6 5-12 11-14z" fill="#49ccd2"/><path d="M1034 22c2 6 1 12-3 17-3-5-1-13 3-17z" fill="#17acb5"/><path d="M1031 39l10 15c-3 2-6 3-8 7s-3 8-1 13c1 4 5 8 7 13l6 7c4-6 8-11 11-18 4-5 3-13-1-18l-8-5 7-9c-1 4-1 8 1 13l11 16 1 1-3 4 13 3c-1 4-4 7-8 9l-4 2-8-2c-5 1-9 6-8 11h23c6-1 11-6 17-9l7 3c-2 5-3 11 1 16l10 17c2 0 3-2 4-3l8-13c3-3 3-7 3-11l8 2c-4 1-8 4-10 9-1 4-1 9 2 13l11 18c4-3 6-8 8-12 3-3 5-7 6-11 1-5-1-10-4-14 7 1 14 4 19 9 3 2 2 8 1 11-3 3-9 4-11 8-2 3-2 7-3 11-1 6-5 11-8 16-8 11-18 22-28 31l-2-1c-2-3-4-5-8-6h-10c0-6 0-11-4-15-5-5-13-5-18-1-6 5-7 13-4 20l11 17h3l4-7c1 9 8 17 13 24l-5 2h-5c-2 2-2 6-5 7h-12c-4 0-8-1-12 1-3 1-4 4-6 6-4 1-7 1-10 4-4 3-5 7-6 11-5-4-11-5-17-2-4 3-5 6-7 10l-9 4c-5 5-6 13-2 19l5 9-7 5c-4 5-4 13 0 18l11 17c4-4 6-9 9-14 3-4 6-9 5-14-1-4-3-7-6-10l5-8 4 2c5-8 11-15 14-24l8 12c-4 0-8 0-12 2-5 2-7 8-7 13 0 4 2 8 4 12l9 13h2l10-17c3-4 3-10 1-14l-5-7 9-14 3 5h3l8-13c2-3 4-6 4-10v-6c0-4 3-3 6-4 0 7 4 12 8 17l6 9 5-7c4-5 8-10 9-17 9 10 7 23 15 34 3 5 9 6 13 10l-3 18-2-1-9-4c2-4 4-8 4-12 0-5-2-9-6-12-4-2-9-2-12-1-6 2-10 9-10 15 0 7 7 13 9 19 1 4-1 8 1 12l9 13c1 3 2 5 5 6l8-13 1 22c2 8 2 16 7 23l-4 1-8 5c0-6-1-11-5-15-4-3-9-3-13-2s-7 4-8 7c-2 3-2 7-2 10-3 1-7 2-9 5-6 5-6 13-2 19l11 17c5-5 7-10 11-16l7-8 7-11c0 3 0 6 2 9 1 4 4 8 7 12l4 7h3l7-11c3-5 6-9 5-15 0-5-3-9-7-12l11 2c7 4 12 11 14 18l-4 5c-4 1-8 2-11 5-4 4-4 10-3 15 0 3 2 6 4 8 3 5 5 9 9 13l10-14c1 2 2 6 5 5l10-16c2 3 4 4 3 7-2 4-7 5-9 9s0 7 3 10l6 12-5 2c-5 2-8 6-9 12-3-3-6-6-10-6-7-2-14 3-15 10-1 4-1 9 1 13l9 14c1 1 2 3 4 1l8-11 5-11 10 15c1 2 2 1 3 2l2-4c3 4 4 9 6 13l-3 2c-7 3-11 9-10 17 0 3-2 5-4 7l-1 4-5 1c-6 1-9 5-11 10l-1-2 10-14c4-7 2-16-4-21-5-4-13-3-18 1-4 5-4 11-3 16l8 14c-5 0-10 1-13 5-5 5-4 12-2 18h-4l-7-8c-5-4-12-3-16 1-3 3-4 6-5 9l-4-4c2-5 6-9 7-14 3-9-3-19-12-20-8 0-15 7-15 15 0 6 5 12 8 17l-7 6c-2 2-2 5-3 8-4-3-8-5-13-3-9 2-13 13-9 21 2 5 6 9 9 14l-3 6c-1-7-6-12-13-12-8-1-14 6-15 14 0 4 1 7 3 10l11 16 10-14 1 6 5 9c-1 4-3 6-3 10 0 5 3 10 6 14l7 11h2l5-7 8 11 12-18c-2 5-3 10 0 15l10 15 3 3 4-6 9 13h3l9-14c2 8 9 16 13 24h3l8-12c1-1 1-3 3-3l6 9 2 1 11-18c2-4 1-7 2-11l4-7c2 9 9 16 13 24h3l12-21 1-4 10-2-5 27-16 2-6 4-6 7-4-4-25 11-10 3-14-8c-2-2-4-4-6-3l-32 2c-2 1-5-1-6-3l-19-13-7-4 3 13-20-1-16-1-1 11c-6 0-12-2-18-4l-24-7-33-9c-6 11-11 24-19 35-2 3-4 1-7 0l-29-15-20-8-5 11-9-4-5 2-4 9-9 9h-2c0-4-1-7-4-10-5-4-13-5-20-7v-9l12-1c1 1 3 4 5 4l3-5h13l3-8 8-4 3 5h3l8-14 5 13 9 13c2 0 3-2 4-3 3-5 7-10 9-16 4-7 1-17-7-20-3-4-4-9-5-14l8-8 1 1 4 7 9-1 10 15h2l3-5c4 6 7 12 12 17l7-9 6-11c2-6 0-14-5-18-3-2-7-2-10-3l-1-1 7-1c4 4 8 6 13 9 0 4-1 7 1 11l12 18c3-1 4-4 6-6 3-5 7-10 8-15 1-4 0-8-1-12 0-4 2-6 5-8l9 14 3 2 10-16c2-3 4-6 3-10 0-5-3-10-7-12-3-2-7-2-11-1s-7 5-9 9l-7 7-5 5-12 3-10-9-3-6-4-13-7-2-7 5h-9l-3-20h-13l-8 8c-4 0-9 0-14-2l-5-9-7-4 2-19 2-6 7 10 4 5 7-10 5 1 7-8v2 10l6 12 6 8c2 0 3-2 4-4 3-4 7-9 9-14 2-3 2-7 1-11 0-3-3-6-5-8l7-7c3 5 5 9 9 13l11-16c1-3 3-6 3-10-1-5-3-8-6-12v-14l-10-12c-5 4-11 9-17 12l-5-12 11-6 4 6h3l11-18c2-4 1-7 1-10l4 1 3-6 3 1-3 7h9c3-1 4-4 6-6 3 3 5 7 9 9 3 3 7-2 10-4l10 17 4-2 9-15h2l8 10 4-4a870 870 0 0013 22c3-1 4-4 6-7 3-5 7-10 8-16s-2-13-7-15c-3-2-7-2-11-1s-8 5-9 10l-1 4-10-6-1-8c0-3-2-5-4-7l10-8 1-5-7-5-1-3 2-8 3 1 2 2 13 20 6-9c3-4 6-7 7-12 2-6 0-12-5-16-3-3-6-3-10-4l1-3-10 9-2 2-7-3c1-4 2-8 1-12l-5 3-4-4 2-9c0-8-4-14-8-20l5-6c4 6 7 12 12 17l3-4c0 4 1 6 3 9l10 16c4-1 5-5 8-8 3-5 7-11 7-17s-4-11-9-14h-10c3-8 2-16-5-20 3-2 5-1 8-1 2 0 2-2 3-3-6 0-11-1-16-3l-5 5-3 1-3-1c-4-3-9 1-12 4-4 3-8 3-13 4l-13-17 1 13-5 7c-6-6-9-14-15-20l-4 4-15-12 11-3 3 5c2 0 3-2 4-3l9-13c3-6 3-14-1-19l11-13-7-15c-1-1-2-3-1-4 1-6 3-11 6-16l6 8 10-14c2-4 4-8 4-13-1-8-9-15-17-13-5 1-8 4-10 8-6 5-13 8-19 12-1-3-4-5-6-7l3-6 2-18 10-9 8 12 4 5 11-17c3-4 3-10 1-15-3-6-10-10-16-8-5 2-9 6-10 11-2 5-6 11-10 14-7 6-18 8-27 7-5-2-7-4-8-9l11-1c4 0 7-2 10-3l4 6h2l6-8 6-12c1-4 1-9-1-13-1-4-4-7-6-10-1-3 1-5 3-7l7 11 8-10 7-1 5-5-6-5v-1l1-7h3l8 12h3l9-14 7-10c3-5 7-9 9-15 3-7-2-17-10-19-6-2-12 2-15 7-2 4-2 7-2 11l-7 2c-5-7-9-15-9-24-1-3 1-4 3-6 4 4 6 9 11 12l-2-12 3-5 10 9c1-1 5-2 4-5-3-3-7-5-8-9 0-3 1-5 3-7l9 5 5 7c4-3 6-10 10-14z" fill="#d7f5f7"/><path d="M1047 54c-1 1-2 3-4 3l-2-2c2-2 4-1 6-1z" fill="#17acb5"/><path d="M1016 68c8 2 13 12 10 19-2 6-6 10-9 15l-7 10-9 14h-3l-8-12c-3-4-5-9-5-14s3-9 7-12l7-2c0-4 0-7 2-11 3-5 9-9 15-7z" fill="#49ccd2"/><path d="M1000 86l9 4c4 5 5 11 3 16l-9-12-3-8z" fill="#17acb5"/><path d="M1111 88c6 2 10 7 11 13 0 4 0 8-3 11l-8 13c-1 1-2 3-4 3l-10-17c-4-5-3-11-1-16 3-5 9-8 15-7zM1137 103l6 3c3 4 5 9 4 14-1 4-3 8-6 11-2 4-4 9-8 12l-11-18c-3-4-3-9-2-13 2-5 6-8 10-9h7zM983 107c3 4 3 9 3 14v1l-6 11-8 10-7-11-6-8c-3-7 0-16 6-20 6-3 13-2 18 3zM1065 103c10 0 17 11 14 20-2 5-6 10-9 14-1 3-2 5-6 6l-3-4-10 13c-4-6-8-11-11-18-4-6-3-14 2-19l11-4c3-4 6-7 12-8z" fill="#49ccd2"/><path d="M1054 112c5 1 9 5 10 10s1 10-2 15c-2 0-3-2-4-3-3-5-7-11-6-17 0-2 0-5 2-5z" fill="#17acb5"/><path d="M986 122l6 5-5 5-7 1 6-11z" fill="#a0dde0"/><path d="M1015 135c7 1 12 6 12 13 1 6-2 11-6 16-3 4-4 8-8 11l-11-17c-2-4-3-8-2-12 2-7 8-12 15-11zM961 143c3 1 5 4 7 6 2 4 2 9 1 13l-6 12-6 8h-2l-4-6-8-12-1-8c0-3 1-7 4-9 3-4 10-6 15-4zM1122 144c6 3 10 9 9 16-1 4-2 7-5 10l-8 13h-2l-10-17c-4-6-3-14 2-19 4-4 9-5 14-3z" fill="#49ccd2"/><path d="M942 156l1 8-4-3c-1-2 1-3 3-5z" fill="#d7f5f7"/><path d="M985 157c6-2 13 2 16 8 2 5 2 11-1 15l-11 17-4-5-8-12c-3-4-3-7-2-12s5-9 10-11zM1041 157c8-2 17 6 17 14 0 5-2 9-5 13l-9 13c-4-3-6-8-9-12-2-4-5-8-5-13 0-7 4-13 11-15zM1089 170c4 4 4 9 4 15h10c4 1 6 3 8 6 1 3 3 7 2 10-1 5-4 10-7 14l-6 8 6 3c5 3 7 8 7 14-1 7-5 12-9 17l-5 7-6-9c-4-5-8-10-8-17 0-6 3-10 8-13l5-2c-5-7-12-15-13-24l-4 7h-3l-11-17c-3-7-2-15 4-20 5-4 13-4 18 1z" fill="#49ccd2"/><path d="M1092 186c-1 5-4 8-7 12l2-6c1-3 3-4 5-6z" fill="#17acb5"/><path d="M1039 197c6 0 11 6 12 12 1 4 0 8-2 12l-11 16-4-5-9-13c-2-4-2-10 0-14 2-5 8-9 14-8zM997 200c8-2 16 5 17 13 0 5-2 9-4 13l-10 14-6-8-8-13c-1-4 0-7 1-11 2-4 5-7 10-8zM962 213c2 2 5 4 6 7l1 9c-1 5-3 8-6 12l-3 4-5 7-6-9-6-10c-3-7-1-16 5-20 4-2 9-2 14 0z" fill="#49ccd2"/><path d="M1106 215l2 11h-2l-6-3 6-8z" fill="#d7f5f7"/><path d="M1093 225c-5 3-8 7-8 13-3 1-6 0-6 4-1-5-4-8-8-10h12c3-1 3-5 5-7h5z" fill="#a0dde0"/><path d="M971 225l-1 12-7 6v-2c3-4 5-7 6-12l2-4z" fill="#d7f5f7"/><path d="M1059 233c4-2 8-1 12-1 4 2 7 5 8 10v6c0 4-2 7-4 10l-8 13h-3l-3-5-9 14 5 7c2 4 2 10-1 14a445 445 0 01-12 17l-9-13c-2-4-4-8-4-12 0-5 2-11 7-13 4-2 8-2 12-2l-8-12c-3 9-9 16-14 24l-4-2-5 8c3 3 5 6 6 10 1 5-2 10-5 14-3 5-5 10-9 14l-11-17c-4-5-4-13 0-18l7-5-5-9c-4-6-3-14 2-19l9-4c2-4 3-7 7-10 6-3 12-2 17 2 1-4 2-8 6-11 3-3 6-3 10-4 2-2 3-5 6-6z" fill="#49ccd2"/><path d="M1065 255c0 4-2 7-3 10l-3-3c-3-4-6-8-7-13-1-3 0-6 1-9 8 0 12 8 12 15z" fill="#17acb5"/><path d="M949 243l6 9 5-7c1 5-1 8-2 13l-5 14c-3 2-7 4-11 4-3 0-6 0-7-4 0-3 3-6 5-8 3-3 6-8 7-12l2-9z" fill="#d7f5f7"/><path d="M907 265c4 2 5 6 6 10 0 4-1 7-3 11l-9 15c3 5 5 10 3 16s-6 11-9 16c-4-4-7-7-12-7l8 11 3-4 2 5c1-4 3-7 6-10 6-4 13-3 18 2 4 4 5 11 3 17l-6 9-6 9h-2c-5-7-10-14-13-21-4 8-8 15-13 21-2 1-4-3-5-5-4-6-9-13-10-20 1-4 2-8 5-11l9-4-5-9-3 2-6-9c-3-4-6-9-7-13-1-5 1-11 5-15 4-3 8-4 12-2 5 1 9 5 10 10v8h7l-8-13c-2-4-2-7-2-11 1-3 3-6 6-8 4-4 12-4 16 0z" fill="#49ccd2"/><path d="M1014 263c7 0 12 6 13 12 1 4-1 7-2 11l-9-13c-2-3-2-6-2-10z" fill="#17acb5"/><path d="M1113 272c3-1 8-1 12 1 4 3 6 7 6 12 0 4-2 8-4 12l9 4c2 3 4 6 4 10 1 5-2 9-5 13l-8 13c-3-1-4-3-5-6l-9-13c-2-4 0-8-1-12-2-6-9-12-9-19 0-6 4-13 10-15z" fill="#49ccd2"/><path d="M881 272l4 1c0 4 0 7 2 11l8 13h-7v-8c-1-5-5-9-10-10 0-3 1-5 3-7zM913 275l6 4c-3 1-6 3-8 7-2 5-2 11 1 15l10 17h2l7-11c1 3 3 6 2 9l-14 12c2 0 5 2 7 1l13-1c-2 10-1 19-3 28l-19 2v-2l6-9c2-6 1-13-3-17-5-5-12-6-18-2-3 3-5 6-6 10l-2-5h1c3-5 7-10 9-16s0-11-3-16l9-15c2-4 3-7 3-11z" fill="#d7f5f7"/><path d="M985 280c4 5 4 13 1 19l-9 13c-1 1-2 3-4 3l-3-5c-3-5-7-9-9-14-3-6 0-15 5-19 6-3 14-2 19 3z" fill="#49ccd2"/><path d="M861 278c2 0 3 2 5 3-4 4-6 10-5 15 1 4 4 9 7 13l6 9 3-2 5 9-9 4c-3 3-4 7-5 11l-1-7-13 3-3 15c-4 1-10 2-15 1l-4-5-16-21c-2-3-5-5-6-9l27-8-5-10c5-1 10 0 15 1l10-19c1-1 2-3 4-3z" fill="#d7f5f7"/><path d="M928 279c6 2 10 8 10 15-1 5-4 9-7 13l-7 11h-2l-10-17c-3-4-3-10-1-15 2-4 5-6 8-7h9z" fill="#49ccd2"/><path d="M1014 294l5 2-6 7-6-9h7z" fill="#17acb5"/><path d="M1080 294c7 0 12 6 13 13s-4 13-7 19c-3 3-4 7-7 8l-11-17c-2-3-3-6-3-10 1-7 8-13 15-13z" fill="#49ccd2"/><path d="M1126 297l-8 14c-2-1-5-3-4-6 2-5 7-8 12-8zM888 298l-11 17c0-4 0-8 2-12 2-3 5-4 9-5z" fill="#17acb5"/><path d="M1046 325c5 2 10 3 16 3-1 1-1 3-3 3-3 0-5-1-8 1-4-2-6-3-10-2l5-5z" fill="#a0dde0"/><path d="M883 326c5 0 8 3 12 7h-1l-3 4-8-11z" fill="#17acb5"/><path d="M1041 330c4-1 6 0 10 2 7 4 8 12 5 20h10c5 3 9 8 9 14s-4 12-7 17c-3 3-4 7-8 8l-10-16c-2-3-3-5-3-9l-3 4c-5-5-8-11-12-17-5-8-2-18 6-22l3-1zM1095 332c10 1 15 13 11 21l-11 19c-4-1-5-4-7-6-2-5-7-10-8-16-2-9 6-19 15-18z" fill="#49ccd2"/><path d="M896 344c3 7 8 14 13 21h2v5c-3 2-9 3-12 0l-8-6-4 6-13-4 4-6c1 2 3 6 5 5 5-6 9-13 13-21z" fill="#d7f5f7"/><path d="M1055 353l-8 12c1-2 1-5 3-7 1-3 3-4 5-5z" fill="#17acb5"/><path d="M1113 358c4-1 9-1 13 2 4 4 5 9 5 15l8-5c4-1 7 0 10 1 4 3 7 7 7 12 1 6-2 10-5 15l-7 11h-3l-4-7c-3-4-6-8-7-12-2-3-2-6-2-9l-7 11-7 8c-4 6-6 11-11 16l-11-17c-4-6-4-14 2-19 2-3 6-4 9-5 0-3 0-7 2-10 1-3 4-6 8-7z" fill="#49ccd2"/><path d="M1104 376c4 1 8 2 10 6 3 4 4 8 3 13l-2-1c-4-6-9-11-11-18z" fill="#17acb5"/><path d="M1183 388c7 0 12 5 14 12 1 5-1 9-3 12l-10 16c-3 1-4-3-5-5l-10 14c-4-4-6-8-9-13-2-2-4-5-4-8-1-5-1-11 3-15 3-3 7-4 11-5l4-5 9-3zM1060 393l-1 3c4 1 7 1 10 4 5 4 7 10 5 16-1 5-4 8-7 12l-6 9-13-20-1-8 3-7 10-9z" fill="#49ccd2"/><path d="M1173 398c4 1 7 5 9 8 2 6 0 11-3 16l-8-12c-2-3-2-7-1-10 0-1 1-3 3-2z" fill="#17acb5"/><path d="M981 420c9 2 13 11 11 19-1 6-6 11-9 15l-3 6-4-1c0 3 1 6-1 10l-11 18h-3l-4-6-8-13c-3-8 1-17 8-20 5-2 10 1 15 3-3-6-8-11-7-17 0-8 7-15 16-14zM1135 420c8 2 12 13 9 20l-8 13-5 7-12-17c-2 8-8 15-13 23h-2l-10-17c-4-6-3-15 3-20 4-3 8-3 13-2l7 5 4-8c4-4 9-5 14-4zM1029 438c4 0 7 2 9 5 2 2 4 4 4 7 1 4 0 8-2 11l-9 15-4 2-10-17c-2-3-3-6-3-10 1-7 8-13 15-13zM1063 450c4-1 8-1 11 1 5 2 8 9 7 15s-5 11-8 16c-2 3-3 6-6 7a870 870 0 01-13-22v-7c1-5 5-9 9-10z" fill="#49ccd2"/><path d="M1042 450l1 8 10 6 1-4v7l-4 4-8-10h-2c2-3 3-7 2-11z" fill="#a0dde0"/><path d="M1192 452h9c8 2 12 12 9 19-2 6-6 11-10 16l-2 4c-1-1-2 0-3-2l-10-15-5 11-8 11c-2 2-3 0-4-1l-9-14c-2-4-2-9-1-13 1-7 8-12 15-10 4 0 7 3 10 6 1-6 4-10 9-12zM1003 474c9 1 14 10 13 18-1 5-4 9-7 12-2 3-3 7-6 10h-2l-5-8c-3-5-8-11-8-17 0-8 7-15 15-15zM1131 481c7-1 13 3 15 9 1 5 1 10-2 14l-11 17-6-9-10 13c-4-6-9-12-12-19-4-7-1-17 7-20 4-2 7-1 10-1 3-2 5-4 9-4z" fill="#49ccd2"/><path d="M1123 486c5 3 8 9 8 15 0 4-3 7-5 10l-6-12c-1-4-1-9 3-13z" fill="#17acb5"/><path d="M1035 490c4 2 7 7 7 12 1 4-1 9-4 12l-8 14h-3l-8-14c-3-3-5-7-5-11 0-6 4-12 10-14 3-1 8-1 11 1zM1214 503c6 4 8 13 6 20l-12 18h-3l-3-6c-4-5-7-9-9-16-1-8 3-14 10-17 4-1 7-1 11 1zM1177 504c6 5 8 14 4 21l-10 14 1 2c2-5 5-9 11-10 3 0 7 0 10 2l5 5c3 5 2 11-1 16l-11 17-11-16-7 11c4 1 7 1 10 4 6 5 7 14 4 20-3-2-6-5-10-5-4-1-7 1-11 2l-4-1 1 5c-1 4-3 7-2 11 1 5 4 9 7 13l-2-1-2 2c-1-4-3-8-6-11-4-2-8-2-12-1l-2-3-3 5 4-2 13 21-4 5h-3v-12c-2-5-7-10-13-10-3 0-5 2-8 3l3 4 3 1 1 8 5 8-2 2c-2-3-3-6-6-8l-7-11-3 7c-3 1-6 2-8 5l-5 7h-5l9 15 5 4c1-7 5-12 9-17l8 13-2-1c0 1 0 2 2 2l4 8c-3 2-6 5-7 8-2 6-1 11 2 16l2-2c3-5 6-9 7-15l5 6 7-10 4 11c2-2 4-5 8-5 3-1 6 0 10 1 2-3 4-5 8-7l-1-2-4 2-7-10-7 11h-3l-4-7c3-4 4-8 3-13-1-4-3-7-6-10l5-8-2-2 3-5v5l8 1-1-3c1 1 3 2 3 4-2 3-5 6-5 10-1 6 2 11 6 16 3-4 5-8 5-13 1-5-2-8-4-13 3 3 5 8 7 12 2 2 5 5 5 8l-3 7v6c4-3 6-8 9-12 2-3 3-7 2-11 0-4-3-9-7-11-2-2-6-2-9-2l6-10 3-9 2 1c-2 0-2 1-2 2 1 2 2 1 3-1l2 7-1 10 7 12c2-3 4-6 4-9 1-4 0-8 2-11l9 12 6-7c0 7-4 11-7 17l-6 8 4 5 1 6c3-3 6-5 11-5s10 3 12 8c2 3 1 7 1 11l-12 21h-3c-4-8-11-15-13-24l-4 7c-1 4 0 7-2 11l-11 18-2-1-6-9c-2 0-2 2-3 3l-8 12h-3c-4-8-11-16-13-24l-9 14h-3l-9-13-4 6-3-3-10-15c-3-5-2-10 0-15l-12 18-8-11-5 7h-2l-7-11c-3-4-6-9-6-14 0-4 2-6 3-10l-5-9-1-6-10 14-11-16c-2-3-3-6-3-10 1-8 7-15 15-14 7 0 12 5 13 12l3-6c-3-5-7-9-9-14-4-8 0-19 9-21 5-2 9 0 13 3 1-3 1-6 3-8l7-6c-3-5-8-11-8-17 0-8 7-15 15-15 9 1 15 11 12 20-1 5-5 9-7 14l4 4c1-3 2-6 5-9 4-4 11-5 16-1l7 8h4c-2-6-3-13 2-18 3-4 8-5 13-5l-8-14c-1-5-1-11 3-16 5-4 13-5 18-1zM1082 504c8 2 14 12 10 20l-8 13-5 7-11-17-3 9-10 18h-3l-11-17c-2-5-2-11 0-16 3-4 8-7 13-7s8 3 11 7c0-4 0-7 2-11 3-5 9-7 15-6zM966 511c4-1 8 0 12 2 3 4 5 7 6 12 0 4-2 7-3 10l-11 16c-4-4-6-8-9-13-3-4-5-7-6-12 0-7 4-13 11-15zM1254 511c6 1 10 7 11 13 1 5-2 9-4 13l9 4c4 3 5 8 5 12l-3 9-11 16c-5-5-8-11-12-17-2-4-2-9-1-13l3 3 10-14c-3 0-5 2-8 3l-5 7c-4-7-9-13-11-20 0-3 0-6 2-8 2-6 9-10 15-8z" fill="#49ccd2"/><path d="M1193 519c2 7 5 11 9 16l-4 3-5-5c-3-2-7-2-10-2l5-1 1-4c2-2 4-4 4-7z" fill="#a0dde0"/><path d="M1220 523l17 4c2 7 7 13 11 20v1c-1 4-1 9 1 13 4 6 7 12 12 17l11-16 3-2c0 6 1 12-1 19-6 15-16 28-28 39l-10-2 5 8c-3 2-6 5-10 6h-14l8 3c-1 5-5 10-7 15h-11l-4-5 6-8c3-6 7-10 7-17l1-1c3-6 7-10 7-16 1-5-2-10-6-13-3-3-6-3-10-4-3-2-5-4-9-5s-9 0-12 3-4 6-5 10v-2c3-6 2-15-4-20-3-3-6-3-10-4l7-11 11 16 11-17c3-5 4-11 1-16l4-3 3 6h3l12-18z" fill="#d7f5f7"/><path d="M916 527c7 1 12 9 12 16-1 5-4 10-7 14l-7 10-4-5-7-10c-2-3-4-7-4-11 0-8 9-16 17-14zM1013 533c7-2 14 4 16 11 1 4 0 8-2 12 4-1 8-2 12-1 6 2 10 8 10 14 0 4-2 7-4 10l-9 15h-2l-11-17c-2-3-2-7-3-10l-4 6c-4-3-5-6-8-10-2-4-5-7-6-11-2-8 3-17 11-19z" fill="#49ccd2"/><path d="M1261 537l-10 14-3-3v-1l5-7c3-1 5-3 8-3zM1173 542c2 3 2 7 2 11-3-3-3-7-2-11z" fill="#17acb5"/><path d="M954 545c2 2 5 5 5 8 1 4 1 8-1 11-2 5-6 10-9 14-1 2-2 4-4 4l-6-8-6-12v-10c2-3 3-6 6-8 5-3 10-2 15 1zM990 560c3 4 3 9 2 14 3-2 5-4 9-4 8-1 14 5 15 12 1 6-2 11-5 15l-7 11h-4l-10-15c-2-4-2-8-2-12l-8 13h-3l-9-14c-2-4-4-8-3-12 0-5 3-10 7-12 6-4 14-2 18 4z" fill="#49ccd2"/><path d="M1102 554c4 0 7 0 10 2l-5 6-5-8z" fill="#17acb5"/><path d="M1241 557c7 4 10 14 6 21l-12 18c-3-2-4-5-6-8l-8-13c-1-4 0-8 2-12 3-6 11-9 18-6z" fill="#49ccd2"/><path d="M1145 559l-1 8-6 12 5 10c4-2 7-4 11-4l-8 13-4-3-3 5 1-8-5-8-4 4-7-11 7-1c0-4 0-8 2-11 3-4 7-8 12-6zM1150 559l6 4c2 2 2 5 3 8l7-4-2 5-5 4-3 6 2-10-8-13z" fill="#17acb5"/><path d="M1119 571l4 6-3 1-2-1 1-6z" fill="#d7f5f7"/><path d="M1108 576c3-1 6 0 10 1l2 1c6 4 8 11 6 17-1 4-3 7-6 10l-4 7-3 4c-2 0-3-3-4-4l-9-15c-2-4-1-8-1-12 2-4 5-7 9-9zM1199 579c4 1 6 3 9 5l3 8-3 12 6 5 3 8-1 1-6 7-9-12c-2 3-1 7-2 11 0 3-2 6-4 9l-7-12 1-10-2-7-1-1-2-1-3 9-6 10c3 0 7 0 9 2 4 2 7 7 7 11 1 4 0 8-2 11-3 4-5 9-9 12v-6l3-7c0-3-3-6-5-8-2-4-4-9-7-12 2 5 5 8 4 13 0 5-2 9-5 13-4-5-7-10-6-16 0-4 3-7 5-10 0-2-2-3-3-4l-3-5c-3-4-6-8-7-13-1-4 1-7 2-11l-1-5 4 1c4-1 7-3 11-2 4 0 7 3 10 5v2c1-4 2-7 5-10s8-4 12-3z" fill="#17acb5"/><path d="M1096 580l3 5c0 4-1 8 1 12l9 15c-4 2-7 5-10 9l1-1c3-6 4-11 2-17s-7-9-13-10l7-13z" fill="#d7f5f7"/><path d="M1208 584c4 1 7 1 10 4 4 3 7 8 6 13 0 6-4 10-7 16l-3-8-6-5 3-12-3-8z" fill="#49ccd2"/><path d="M1089 594l-7 9-2 1-2-4 5-5 6-1z" fill="#17acb5"/><path d="M1139 601l2 3h-1l-4 2 3-5z" fill="#a0dde0"/><path d="M1153 605c3 3 5 7 6 11v1l-3 5 2 2-5 8c3 3 5 6 6 10 1 5 0 9-3 13l-4 6-7 10-5-6c-1 6-4 10-7 15l-2 2c-3-5-4-10-2-16 1-3 4-6 7-8l-4-8v-1l-8-13c-4 5-8 10-9 17l-5-4-9-15h5l5-7c2-3 5-4 8-5l3-7 7 11c3 2 4 5 6 8l2-2-5-8-1-8-3-1-3-4c3-1 5-3 8-3 6 0 11 5 13 10v12h3l4-5-13-21h1c4-1 8-1 12 1z" fill="#17acb5"/><path d="M1186 603l1 1c-1 2-2 3-3 1 0-1 0-2 2-2z" fill="#a0dde0"/><path d="M1022 605c4-1 8-1 11 1 4 2 7 7 7 12 1 4-1 7-3 10l-10 16-3-2-9-14c-3-5-3-9-2-14 2-4 5-8 9-9z" fill="#49ccd2"/><path d="M1096 611l4 9-1 1-7 9 3 3-1 3 4-1c2 3 4 5 4 9 1 7-4 13-8 18l-5-6-1-10-5-1-5-10 8-5-11-17-3 5c1-4 5-10 10-11 5-2 10 1 14 4z" fill="#17acb5"/><path d="M1120 605l5 6-4 4-5-3 4-7zM1161 614l2 1 3 5 1 3-8-1v-6l2-2z" fill="#d7f5f7"/><path d="M953 622c5 1 9 5 11 10l1 1c3 1 7 1 10 3 5 4 7 12 5 18l-6 11-7 9c-5-5-8-11-12-17l-3 5h-2l-10-15c-2-3-4-6-4-10 0-9 8-17 17-15z" fill="#49ccd2"/><path d="M1099 628l1 7c-2-1-4 0-4-3 0-2 1-3 3-4z" fill="#a0dde0"/><path d="M995 629c6-1 11 2 15 7 1 4 2 8 1 12-1 5-5 10-8 15-2 2-3 5-6 6l-12-18c-2-4-1-7-1-11 2-5 5-10 11-11z" fill="#49ccd2"/><path d="M965 635l-2 9-8 12c-3-6-3-13 2-18 2-2 5-4 8-3z" fill="#17acb5"/><path d="M1051 636c5 3 7 8 8 13 4 0 7 0 10 3 6 5 7 14 3 20l-9 16c-2 1-3 1-4-1l-11-17-3 4-7-9c-2 7-5 12-9 17-2 3-3 6-6 7l-12-18c-3-8 0-18 8-21 4-1 8-1 11 1 1-4 1-8 4-11 4-6 11-8 17-4z" fill="#49ccd2"/><path d="M1195 634l4 6c-2 0-5 0-7-2l3-4z" fill="#d7f5f7"/><path d="M1130 648l2 1v1c-2 0-2-1-2-2z" fill="#a0dde0"/><path d="M903 652c3 4 4 8 5 13 3-2 5-4 8-4 2-1 5 0 7 1 8 3 11 13 7 20-2 6-6 11-9 16-1 1-2 3-4 3l-9-13-5-13-8 14h-3l-3-5-9-15c-2-6 0-14 6-18 5-3 12-3 17 1z" fill="#49ccd2"/><path d="M1129 650l-7 11-2 1-5-7 6-5h8zM1059 650c-2 7-7 14-11 19l-1-8c1-6 6-11 12-11z" fill="#17acb5"/><path d="M1170 651l7 10 4-2 1 2c-4 2-6 4-8 7-4-1-7-2-10-1-4 0-6 3-8 5l-4-11 4-6 4 7h3l7-11z" fill="#d7f5f7"/><path d="M1031 652c5 2 6 7 7 12-3-4-6-8-7-12zM1208 655c-1 3-1 6-4 8l4-8z" fill="#17acb5"/><path d="M865 661c8 3 12 12 9 20l-9 15-3 5c-2 0-4-3-5-4l-9-14c-2-5-2-9 0-14 3-6 10-10 17-8z" fill="#49ccd2"/><path d="M1190 662c4 1 7 4 8 8 2 3-1 6-3 8-1 2-2 0-3-1l-10-15h8zM1174 668c4 3 7 8 7 13l-3 9-5-9c-2-4-1-9 1-13zM1156 674l-3 6c0-3 1-4 3-6z" fill="#17acb5"/><path d="M963 685c2 4 2 10-1 14l-10 17h-3l-8-13c-2-3-4-6-4-10-1-7 3-14 10-16s14 1 16 8z" fill="#49ccd2"/></svg>